<?xml version="1.0" encoding="UTF-8" ?>
<!DOCTYPE svg PUBLIC "-//W3C//DTD SVG 1.1//EN" "http://www.w3.org/Graphics/SVG/1.1/DTD/svg11.dtd">
<svg width="300pt" height="300pt" viewBox="0 0 116 116" version="1.1" xmlns="http://www.w3.org/2000/svg">
<path fill="#131313" d=" M 0.00 0.00 L 116.00 0.00 L 116.00 8.14 C 112.50 5.75 109.80 1.00 105.07 1.46 C 100.66 1.47 96.27 1.30 91.88 1.00 C 84.18 1.18 76.48 1.57 68.78 1.09 C 65.18 1.07 61.59 1.01 58.00 1.02 C 56.22 1.03 54.45 1.09 52.67 1.10 C 49.83 1.03 46.98 1.04 44.14 1.01 C 40.50 0.96 36.85 0.91 33.21 0.90 C 25.80 0.68 18.40 0.93 11.00 1.20 C 6.56 1.21 3.08 4.44 0.00 7.24 L 0.00 0.00 Z" />
<path fill="#282828" d=" M 0.00 7.24 C 3.08 4.44 6.56 1.21 11.00 1.20 C 18.40 0.93 25.80 0.68 33.21 0.90 C 33.31 1.87 33.40 2.83 33.50 3.80 C 32.61 4.19 31.76 4.65 30.86 5.05 C 30.48 6.53 30.09 8.01 29.70 9.49 C 31.12 11.38 32.53 13.28 33.94 15.18 C 33.49 15.31 32.60 15.55 32.15 15.67 C 32.00 19.60 32.90 23.40 34.20 27.08 C 32.30 26.99 30.40 26.86 28.51 26.58 C 27.78 26.22 27.05 25.85 26.33 25.48 C 26.08 24.92 25.59 23.81 25.34 23.25 C 25.90 21.66 26.60 20.10 26.96 18.45 C 26.48 17.16 25.79 15.97 25.33 14.68 C 25.74 12.93 27.29 11.15 26.26 9.33 C 24.90 6.68 22.92 4.40 21.09 2.06 C 18.60 3.53 15.73 4.82 12.91 3.41 C 11.87 4.49 11.13 6.05 9.67 6.61 C 8.32 6.36 7.05 5.73 5.68 5.65 C 3.69 6.05 2.60 7.88 1.38 9.31 C 1.04 9.34 0.35 9.40 0.00 9.43 L 0.00 7.24 Z" />
<path fill="#323232" d=" M 33.21 0.90 C 36.85 0.91 40.50 0.96 44.14 1.01 C 43.52 2.29 42.89 3.57 42.27 4.85 C 43.41 4.62 44.54 4.38 45.68 4.15 C 45.08 6.43 44.22 8.63 43.02 10.66 C 42.18 10.03 41.33 9.39 40.49 8.77 C 40.43 10.33 40.36 11.89 40.43 13.44 C 39.70 14.14 38.95 14.81 38.21 15.51 C 39.54 16.62 40.88 17.79 42.62 18.16 C 43.47 16.65 44.38 15.17 45.35 13.74 C 45.41 15.07 45.46 16.41 45.50 17.75 C 43.73 18.75 41.95 19.74 40.19 20.76 C 42.12 22.25 44.04 21.14 45.61 19.71 C 47.50 23.10 50.70 25.16 54.39 26.16 C 53.58 28.11 53.91 30.14 54.63 32.06 C 54.10 33.08 53.59 34.10 53.05 35.12 C 54.80 36.71 56.39 38.52 56.80 40.93 C 54.31 41.65 51.82 42.36 49.33 43.08 C 49.66 43.48 50.32 44.30 50.65 44.71 C 49.09 44.71 47.42 44.28 45.94 44.91 C 45.18 49.09 42.29 52.62 38.30 54.13 C 37.84 49.75 40.14 44.34 36.21 40.98 C 34.04 39.30 31.92 37.47 30.64 35.00 C 31.21 34.88 32.35 34.64 32.92 34.53 C 34.89 36.83 36.73 39.53 39.85 40.29 C 40.28 40.02 41.12 39.48 41.54 39.20 C 40.34 37.50 40.11 35.49 40.28 33.46 C 37.66 32.06 34.75 31.55 31.83 31.25 C 29.54 31.08 28.68 28.53 28.51 26.58 C 30.40 26.86 32.30 26.99 34.20 27.08 C 32.90 23.40 32.00 19.60 32.15 15.67 C 32.60 15.55 33.49 15.31 33.94 15.18 C 32.53 13.28 31.12 11.38 29.70 9.49 C 30.09 8.01 30.48 6.53 30.86 5.05 C 31.76 4.65 32.61 4.19 33.50 3.80 C 33.40 2.83 33.31 1.87 33.21 0.90 Z" />
<path fill="#242424" d=" M 44.14 1.01 C 46.98 1.04 49.83 1.03 52.67 1.10 C 53.78 1.54 54.88 2.00 55.97 2.47 C 54.70 4.23 52.78 5.10 50.66 5.34 C 51.01 5.91 51.37 6.48 51.73 7.04 C 51.65 8.24 51.60 9.43 51.52 10.63 C 52.18 11.33 52.84 12.04 53.50 12.75 C 52.68 13.12 51.85 13.50 51.03 13.87 C 54.13 16.33 55.46 20.07 56.96 23.58 C 55.99 23.54 55.02 23.49 54.05 23.44 C 55.41 24.70 56.77 25.96 58.12 27.22 C 57.17 27.49 56.22 27.76 55.27 28.03 C 56.76 29.72 58.29 31.38 59.86 33.00 C 61.58 30.65 61.83 27.83 61.41 25.02 C 63.36 22.98 64.69 20.49 65.60 17.83 C 67.18 17.67 68.77 17.41 70.10 16.47 C 68.56 16.24 67.02 16.05 65.49 15.87 C 65.72 15.48 66.20 14.71 66.43 14.32 C 65.65 13.75 64.43 13.53 64.06 12.55 C 64.78 12.21 66.20 11.54 66.92 11.20 C 66.67 9.39 65.76 7.86 64.25 6.83 C 64.69 6.03 65.12 5.24 65.56 4.45 C 63.72 4.64 61.92 4.30 60.39 3.22 C 60.84 4.51 61.28 5.82 61.70 7.13 C 61.21 6.92 60.22 6.50 59.73 6.29 C 59.15 4.54 58.57 2.78 58.00 1.02 C 61.59 1.01 65.18 1.07 68.78 1.09 C 69.05 2.55 69.33 4.01 69.61 5.46 C 70.79 5.87 71.98 6.29 73.17 6.70 C 71.90 7.55 70.63 8.38 69.35 9.20 C 70.01 11.42 70.87 13.58 71.90 15.66 C 72.93 14.96 73.98 14.26 75.01 13.55 C 78.80 15.22 77.66 19.35 76.95 22.52 C 76.30 22.15 75.65 21.77 75.00 21.40 C 72.44 24.18 69.79 26.89 66.79 29.20 C 67.71 29.39 68.63 29.59 69.56 29.78 C 68.80 31.39 67.55 32.90 67.49 34.73 C 68.30 36.10 70.05 36.54 71.30 37.42 C 71.36 40.08 71.95 43.14 74.28 44.74 C 76.66 45.82 78.98 47.06 81.03 48.70 C 82.72 46.19 81.88 43.03 81.69 40.23 C 82.71 38.64 84.19 37.49 85.87 36.66 C 84.81 38.67 82.91 40.67 83.68 43.13 C 84.31 45.58 83.97 49.45 87.16 50.06 C 87.37 49.24 87.58 48.42 87.78 47.59 C 88.95 47.48 90.12 47.34 91.28 47.22 C 91.42 45.37 91.56 43.53 91.63 41.68 C 94.79 40.98 98.02 40.81 101.25 40.92 C 98.72 42.09 96.01 43.05 93.82 44.81 C 92.69 47.29 91.64 49.81 90.14 52.09 C 89.46 52.88 89.49 53.84 89.77 54.77 C 90.57 57.78 91.32 60.80 91.91 63.86 C 88.68 61.08 83.64 64.05 81.07 60.41 C 81.41 59.94 82.10 58.99 82.45 58.52 C 81.84 58.16 81.22 57.80 80.61 57.44 C 80.96 56.99 81.65 56.10 82.00 55.65 C 79.75 55.39 77.47 54.88 75.84 53.17 C 73.06 50.60 69.31 48.11 65.39 49.60 C 64.11 50.68 63.13 52.07 62.06 53.35 C 60.21 52.48 58.18 52.48 56.20 52.79 C 56.53 52.06 56.86 51.34 57.18 50.61 C 58.39 50.71 59.60 50.80 60.81 50.89 C 60.16 49.95 59.67 48.83 58.72 48.16 C 57.00 48.35 55.67 49.81 54.18 50.62 C 53.59 50.37 53.00 50.12 52.42 49.87 C 50.62 51.26 48.77 52.57 46.93 53.90 C 46.46 55.57 45.45 56.96 44.43 58.33 C 44.23 59.71 46.04 60.15 46.77 61.03 C 46.17 62.10 45.58 63.18 44.98 64.25 C 45.84 64.79 46.70 65.33 47.56 65.88 C 48.28 64.23 47.99 61.68 50.00 60.96 C 51.42 62.06 53.37 64.10 52.15 65.97 C 50.93 68.94 48.43 71.01 46.28 73.28 C 45.24 75.80 45.91 78.96 43.76 81.00 C 42.00 82.58 42.05 84.91 42.07 87.09 C 42.62 87.26 43.71 87.61 44.26 87.78 C 43.53 88.96 42.80 90.13 41.99 91.25 C 41.15 90.55 40.29 89.87 39.43 89.19 C 39.85 88.35 40.29 87.53 40.72 86.70 C 40.01 86.50 39.31 86.30 38.60 86.10 C 39.43 84.21 39.50 82.17 39.26 80.15 C 39.68 79.44 40.09 78.72 40.51 78.01 C 40.14 77.36 39.77 76.71 39.40 76.06 C 40.53 76.20 41.66 76.34 42.79 76.49 C 42.72 75.11 42.64 73.73 42.56 72.35 C 41.37 71.95 40.17 71.57 38.98 71.16 C 37.80 73.00 36.93 75.01 35.87 76.93 C 34.79 78.65 32.69 79.12 30.88 79.70 C 29.98 81.14 29.23 82.99 27.37 83.36 C 24.95 84.37 22.77 82.51 20.54 81.87 C 19.18 81.89 17.99 82.72 16.73 83.13 C 15.56 83.38 14.37 83.51 13.19 83.66 C 12.89 85.76 12.65 87.89 12.03 89.93 C 11.60 89.17 11.16 88.41 10.73 87.65 C 11.98 84.63 11.62 81.30 11.57 78.12 C 11.90 77.79 12.55 77.12 12.88 76.78 C 13.65 77.69 14.43 78.59 15.21 79.49 C 18.83 77.26 21.99 73.25 26.64 73.55 C 26.64 72.79 26.64 72.03 26.64 71.26 C 25.83 70.96 25.02 70.65 24.21 70.35 C 24.88 70.25 26.21 70.04 26.87 69.93 C 26.52 69.60 25.81 68.93 25.46 68.60 C 26.10 68.25 26.74 67.91 27.38 67.57 C 28.09 63.05 29.96 58.80 30.40 54.22 C 30.06 53.77 29.36 52.86 29.01 52.41 C 26.77 50.02 25.71 46.08 22.27 45.17 C 19.71 44.54 18.11 42.30 15.89 41.05 C 19.58 41.06 23.26 41.16 26.94 41.40 C 27.50 43.02 27.56 44.73 27.50 46.43 C 28.51 46.48 29.52 46.53 30.54 46.58 C 30.58 45.76 30.62 44.94 30.66 44.12 C 31.18 44.14 32.22 44.19 32.74 44.21 C 32.74 47.45 32.60 50.69 32.26 53.91 C 33.26 53.48 34.26 53.05 35.26 52.63 C 36.47 48.88 37.10 44.88 36.21 40.98 C 40.14 44.34 37.84 49.75 38.30 54.13 C 42.29 52.62 45.18 49.09 45.94 44.91 C 47.42 44.28 49.09 44.71 50.65 44.71 C 50.32 44.30 49.66 43.48 49.33 43.08 C 51.82 42.36 54.31 41.65 56.80 40.93 C 56.39 38.52 54.80 36.71 53.05 35.12 C 53.59 34.10 54.10 33.08 54.63 32.06 C 53.91 30.14 53.58 28.11 54.39 26.16 C 50.70 25.16 47.50 23.10 45.61 19.71 C 44.04 21.14 42.12 22.25 40.19 20.76 C 41.95 19.74 43.73 18.75 45.50 17.75 C 45.46 16.41 45.41 15.07 45.35 13.74 C 44.38 15.17 43.47 16.65 42.62 18.16 C 40.88 17.79 39.54 16.62 38.21 15.51 C 38.95 14.81 39.70 14.14 40.43 13.44 C 40.36 11.89 40.43 10.33 40.49 8.77 C 41.33 9.39 42.18 10.03 43.02 10.66 C 44.22 8.63 45.08 6.43 45.68 4.15 C 44.54 4.38 43.41 4.62 42.27 4.85 C 42.89 3.57 43.52 2.29 44.14 1.01 Z" />
<path fill="#161616" d=" M 52.67 1.10 C 54.45 1.09 56.22 1.03 58.00 1.02 C 58.57 2.78 59.15 4.54 59.73 6.29 C 60.22 6.50 61.21 6.92 61.70 7.13 C 61.28 5.82 60.84 4.51 60.39 3.22 C 61.92 4.30 63.72 4.64 65.56 4.45 C 65.12 5.24 64.69 6.03 64.25 6.83 C 65.76 7.86 66.67 9.39 66.92 11.20 C 66.20 11.54 64.78 12.21 64.06 12.55 C 64.43 13.53 65.65 13.75 66.43 14.32 C 66.20 14.71 65.72 15.48 65.49 15.87 C 67.02 16.05 68.56 16.24 70.10 16.47 C 68.77 17.41 67.18 17.67 65.60 17.83 C 64.69 20.49 63.36 22.98 61.41 25.02 C 61.83 27.83 61.58 30.65 59.86 33.00 C 58.29 31.38 56.76 29.72 55.27 28.03 C 56.22 27.76 57.17 27.49 58.12 27.22 C 56.77 25.96 55.41 24.70 54.05 23.44 C 55.02 23.49 55.99 23.54 56.96 23.58 C 55.46 20.07 54.13 16.33 51.03 13.87 C 51.85 13.50 52.68 13.12 53.50 12.75 C 52.84 12.04 52.18 11.33 51.52 10.63 C 51.60 9.43 51.65 8.24 51.73 7.04 C 51.37 6.48 51.01 5.91 50.66 5.34 C 52.78 5.10 54.70 4.23 55.97 2.47 C 54.88 2.00 53.78 1.54 52.67 1.10 Z" />
<path fill="#303030" d=" M 68.78 1.09 C 76.48 1.57 84.18 1.18 91.88 1.00 C 91.98 2.24 92.08 3.48 92.18 4.71 C 91.18 5.57 90.19 6.42 89.23 7.31 C 89.07 5.68 88.89 4.05 88.73 2.42 C 87.24 2.53 85.20 1.61 84.34 3.30 C 83.09 4.44 84.07 5.94 84.41 7.24 C 84.08 7.71 83.42 8.65 83.09 9.12 C 83.95 10.69 84.80 12.27 85.66 13.84 C 85.26 14.52 84.86 15.21 84.47 15.89 C 85.92 17.35 87.73 18.28 89.83 18.28 C 89.34 16.16 87.59 13.90 88.83 11.74 C 90.25 11.61 91.66 11.47 93.07 11.27 C 91.94 13.54 92.85 15.95 93.08 18.28 C 92.65 20.96 92.03 24.31 89.24 25.48 C 87.81 26.26 86.16 26.32 84.59 26.51 C 84.69 28.65 84.06 30.67 82.30 32.01 C 82.46 30.77 82.62 29.53 82.80 28.28 C 81.67 28.46 80.55 28.64 79.42 28.81 C 79.78 29.53 80.13 30.25 80.49 30.97 C 79.37 33.08 76.26 35.28 78.07 37.85 C 78.68 39.33 80.40 39.60 81.69 40.23 C 81.88 43.03 82.72 46.19 81.03 48.70 C 78.98 47.06 76.66 45.82 74.28 44.74 C 71.95 43.14 71.36 40.08 71.30 37.42 C 70.05 36.54 68.30 36.10 67.49 34.73 C 67.55 32.90 68.80 31.39 69.56 29.78 C 68.63 29.59 67.71 29.39 66.79 29.20 C 69.79 26.89 72.44 24.18 75.00 21.40 C 75.65 21.77 76.30 22.15 76.95 22.52 C 77.66 19.35 78.80 15.22 75.01 13.55 C 73.98 14.26 72.93 14.96 71.90 15.66 C 70.87 13.58 70.01 11.42 69.35 9.20 C 70.63 8.38 71.90 7.55 73.17 6.70 C 71.98 6.29 70.79 5.87 69.61 5.46 C 69.33 4.01 69.05 2.55 68.78 1.09 Z" />
<path fill="#3a3a3a" d=" M 91.88 1.00 C 96.27 1.30 100.66 1.47 105.07 1.46 C 109.80 1.00 112.50 5.75 116.00 8.14 L 116.00 25.80 C 113.87 25.23 111.74 24.64 109.62 24.04 C 110.18 23.65 111.31 22.85 111.88 22.45 C 110.32 22.05 108.77 21.66 107.22 21.27 C 106.47 22.02 105.72 22.76 104.97 23.51 C 104.43 23.18 103.36 22.50 102.82 22.17 C 103.91 21.02 105.17 20.07 106.48 19.19 C 106.62 18.60 106.76 18.02 106.92 17.45 C 104.66 20.12 101.35 19.32 98.42 18.57 C 97.23 15.05 100.97 11.56 98.50 8.38 C 97.89 7.32 97.21 6.31 96.54 5.29 C 95.13 6.68 93.76 8.11 92.43 9.58 C 92.79 9.76 93.50 10.13 93.86 10.32 C 93.67 10.56 93.27 11.04 93.07 11.27 C 91.66 11.47 90.25 11.61 88.83 11.74 C 89.55 10.72 90.31 9.72 91.06 8.73 C 90.63 8.60 89.77 8.36 89.33 8.24 C 89.31 8.01 89.26 7.54 89.23 7.31 C 90.19 6.42 91.18 5.57 92.18 4.71 C 92.08 3.48 91.98 2.24 91.88 1.00 Z" />
<path fill="#373737" d=" M 12.91 3.41 C 15.73 4.82 18.60 3.53 21.09 2.06 C 22.92 4.40 24.90 6.68 26.26 9.33 C 27.29 11.15 25.74 12.93 25.33 14.68 C 25.79 15.97 26.48 17.16 26.96 18.45 C 26.60 20.10 25.90 21.66 25.34 23.25 C 22.86 19.05 23.74 14.22 23.33 9.63 C 20.41 8.54 17.31 7.92 14.65 6.22 C 13.18 10.10 14.80 14.07 16.16 17.71 C 13.40 17.73 10.59 17.38 7.87 18.02 C 9.16 18.51 10.48 18.95 11.79 19.41 C 10.94 20.28 10.09 21.15 9.20 21.99 C 6.81 23.13 4.58 24.57 2.72 26.46 C 2.04 26.43 0.68 26.36 0.00 26.32 L 0.00 9.43 C 0.35 9.40 1.04 9.34 1.38 9.31 C 2.60 7.88 3.69 6.05 5.68 5.65 C 7.05 5.73 8.32 6.36 9.67 6.61 C 11.13 6.05 11.87 4.49 12.91 3.41 Z" />
<path fill="#1f1f1f" d=" M 84.34 3.30 C 85.20 1.61 87.24 2.53 88.73 2.42 C 88.89 4.05 89.07 5.68 89.23 7.31 C 89.26 7.54 89.31 8.01 89.33 8.24 C 89.77 8.36 90.63 8.60 91.06 8.73 C 90.31 9.72 89.55 10.72 88.83 11.74 C 87.59 13.90 89.34 16.16 89.83 18.28 C 87.73 18.28 85.92 17.35 84.47 15.89 C 84.86 15.21 85.26 14.52 85.66 13.84 C 84.80 12.27 83.95 10.69 83.09 9.12 C 83.42 8.65 84.08 7.71 84.41 7.24 C 84.07 5.94 83.09 4.44 84.34 3.30 Z" />
<path fill="#474747" d=" M 92.43 9.58 C 93.76 8.11 95.13 6.68 96.54 5.29 C 97.21 6.31 97.89 7.32 98.50 8.38 C 100.97 11.56 97.23 15.05 98.42 18.57 C 101.35 19.32 104.66 20.12 106.92 17.45 C 106.76 18.02 106.62 18.60 106.48 19.19 C 105.17 20.07 103.91 21.02 102.82 22.17 C 99.41 25.80 93.83 26.17 90.54 30.02 C 90.09 30.46 89.65 30.92 89.24 31.40 C 88.06 33.12 86.97 34.89 85.87 36.66 C 84.19 37.49 82.71 38.64 81.69 40.23 C 80.40 39.60 78.68 39.33 78.07 37.85 C 76.26 35.28 79.37 33.08 80.49 30.97 C 80.13 30.25 79.78 29.53 79.42 28.81 C 80.55 28.64 81.67 28.46 82.80 28.28 C 82.62 29.53 82.46 30.77 82.30 32.01 C 84.06 30.67 84.69 28.65 84.59 26.51 C 86.16 26.32 87.81 26.26 89.24 25.48 C 92.03 24.31 92.65 20.96 93.08 18.28 C 92.85 15.95 91.94 13.54 93.07 11.27 C 93.27 11.04 93.67 10.56 93.86 10.32 C 93.50 10.13 92.79 9.76 92.43 9.58 Z" />
<path fill="#474747" d=" M 14.65 6.22 C 17.31 7.92 20.41 8.54 23.33 9.63 C 23.74 14.22 22.86 19.05 25.34 23.25 C 25.59 23.81 26.08 24.92 26.33 25.48 C 27.05 25.85 27.78 26.22 28.51 26.58 C 28.68 28.53 29.54 31.08 31.83 31.25 C 34.75 31.55 37.66 32.06 40.28 33.46 C 40.11 35.49 40.34 37.50 41.54 39.20 C 41.12 39.48 40.28 40.02 39.85 40.29 C 36.73 39.53 34.89 36.83 32.92 34.53 C 32.35 34.64 31.21 34.88 30.64 35.00 C 28.02 31.01 24.26 27.41 19.53 26.18 C 17.96 22.02 12.65 23.19 9.20 21.99 C 10.09 21.15 10.94 20.28 11.79 19.41 C 10.48 18.95 9.16 18.51 7.87 18.02 C 10.59 17.38 13.40 17.73 16.16 17.71 C 14.80 14.07 13.18 10.10 14.65 6.22 Z" />
<path fill="#070707" d=" M 104.97 23.51 C 105.72 22.76 106.47 22.02 107.22 21.27 C 108.77 21.66 110.32 22.05 111.88 22.45 C 111.31 22.85 110.18 23.65 109.62 24.04 C 111.74 24.64 113.87 25.23 116.00 25.80 L 116.00 27.08 C 112.95 30.42 111.09 34.63 108.03 37.97 C 105.87 39.17 103.57 40.10 101.25 40.92 C 98.02 40.81 94.79 40.98 91.63 41.68 C 91.56 43.53 91.42 45.37 91.28 47.22 C 90.12 47.34 88.95 47.48 87.78 47.59 C 87.58 48.42 87.37 49.24 87.16 50.06 C 83.97 49.45 84.31 45.58 83.68 43.13 C 82.91 40.67 84.81 38.67 85.87 36.66 C 86.97 34.89 88.06 33.12 89.24 31.40 C 90.95 33.85 92.80 36.68 96.04 37.13 C 102.09 38.27 109.87 33.10 108.19 26.29 C 106.08 26.26 103.98 26.31 101.88 26.44 C 100.59 28.09 99.20 29.64 97.70 31.11 C 97.58 31.77 97.35 33.11 97.23 33.77 C 94.91 32.67 92.68 31.42 90.54 30.02 C 93.83 26.17 99.41 25.80 102.82 22.17 C 103.36 22.50 104.43 23.18 104.97 23.51 Z" />
<path fill="#222222" d=" M 2.72 26.46 C 4.58 24.57 6.81 23.13 9.20 21.99 C 12.65 23.19 17.96 22.02 19.53 26.18 C 15.85 25.43 11.91 25.01 8.48 26.91 L 7.95 26.53 C 7.81 26.28 7.51 25.79 7.37 25.54 C 5.84 25.96 4.31 26.43 2.72 26.46 Z" />
<path fill="#060606" d=" M 2.72 26.46 C 4.31 26.43 5.84 25.96 7.37 25.54 C 7.51 25.79 7.81 26.28 7.95 26.53 C 8.17 30.72 10.25 35.25 14.48 36.68 C 18.14 38.35 22.85 37.62 25.34 34.30 C 25.52 33.70 25.88 32.51 26.06 31.92 C 24.82 32.08 23.57 32.17 22.33 32.34 C 22.55 31.24 22.76 30.15 22.98 29.06 C 20.96 29.40 18.94 29.85 16.88 29.84 C 14.51 29.21 12.23 28.26 9.80 27.84 C 9.47 27.61 8.81 27.15 8.48 26.91 C 11.91 25.01 15.85 25.43 19.53 26.18 C 24.26 27.41 28.02 31.01 30.64 35.00 C 31.92 37.47 34.04 39.30 36.21 40.98 C 37.10 44.88 36.47 48.88 35.26 52.63 C 34.26 53.05 33.26 53.48 32.26 53.91 C 32.60 50.69 32.74 47.45 32.74 44.21 C 32.22 44.19 31.18 44.14 30.66 44.12 C 30.62 44.94 30.58 45.76 30.54 46.58 C 29.52 46.53 28.51 46.48 27.50 46.43 C 27.56 44.73 27.50 43.02 26.94 41.40 C 23.26 41.16 19.58 41.06 15.89 41.05 C 11.78 39.70 7.77 37.42 5.29 33.77 C 3.84 31.59 2.04 29.67 0.00 28.03 L 0.00 26.32 C 0.68 26.36 2.04 26.43 2.72 26.46 Z" />
<path fill="#3a3a3a" d=" M 101.88 26.44 C 103.98 26.31 106.08 26.26 108.19 26.29 C 109.87 33.10 102.09 38.27 96.04 37.13 C 92.80 36.68 90.95 33.85 89.24 31.40 C 89.65 30.92 90.09 30.46 90.54 30.02 C 92.68 31.42 94.91 32.67 97.23 33.77 C 97.35 33.11 97.58 31.77 97.70 31.11 C 99.20 29.64 100.59 28.09 101.88 26.44 Z" />
<path fill="#383838" d=" M 7.95 26.53 L 8.48 26.91 C 8.81 27.15 9.47 27.61 9.80 27.84 C 11.34 29.77 12.66 32.05 14.93 33.22 C 18.13 34.93 21.87 34.30 25.34 34.30 C 22.85 37.62 18.14 38.35 14.48 36.68 C 10.25 35.25 8.17 30.72 7.95 26.53 Z" />
<path fill="#1b1b1b" d=" M 9.80 27.84 C 12.23 28.26 14.51 29.21 16.88 29.84 C 18.94 29.85 20.96 29.40 22.98 29.06 C 22.76 30.15 22.55 31.24 22.33 32.34 C 23.57 32.17 24.82 32.08 26.06 31.92 C 25.88 32.51 25.52 33.70 25.34 34.30 C 21.87 34.30 18.13 34.93 14.93 33.22 C 12.66 32.05 11.34 29.77 9.80 27.84 Z" />
<path fill="#4c4c4c" d=" M 108.03 37.97 C 111.09 34.63 112.95 30.42 116.00 27.08 L 116.00 37.49 C 112.84 39.67 109.60 41.86 105.92 43.05 C 106.50 41.31 107.13 39.57 108.03 37.97 Z" />
<path fill="#424242" d=" M 0.00 28.03 C 2.04 29.67 3.84 31.59 5.29 33.77 C 7.77 37.42 11.78 39.70 15.89 41.05 C 18.11 42.30 19.71 44.54 22.27 45.17 C 25.71 46.08 26.77 50.02 29.01 52.41 C 27.98 55.41 26.02 58.20 25.99 61.47 C 24.32 62.78 24.07 64.95 23.57 66.87 C 23.36 66.35 22.94 65.31 22.73 64.79 C 20.51 64.88 18.96 63.43 17.74 61.74 C 17.94 61.26 18.13 60.78 18.32 60.30 C 16.94 57.16 16.38 53.76 16.49 50.34 C 15.89 49.73 15.29 49.13 14.69 48.52 C 15.68 47.46 16.89 46.48 17.28 45.01 C 16.36 43.32 14.25 43.64 12.67 43.18 C 8.40 42.51 4.45 39.73 0.00 40.62 L 0.00 28.03 Z" />
<path fill="#424242" d=" M 101.25 40.92 C 103.57 40.10 105.87 39.17 108.03 37.97 C 107.13 39.57 106.50 41.31 105.92 43.05 C 104.40 43.50 102.85 43.81 101.30 44.17 C 101.91 45.59 102.53 47.00 103.14 48.42 C 103.69 48.16 104.24 47.91 104.79 47.66 C 105.39 48.13 105.98 48.61 106.58 49.08 C 108.53 49.06 110.47 49.26 112.41 49.47 C 112.45 50.82 112.29 52.22 112.68 53.53 C 113.70 54.55 114.89 55.38 116.00 56.31 L 116.00 67.59 C 113.40 69.66 110.21 71.35 108.51 74.29 C 107.38 78.48 107.20 82.88 106.03 87.07 C 107.81 86.68 109.59 86.30 111.36 85.87 C 111.35 86.25 111.33 87.00 111.32 87.37 C 109.49 89.11 107.77 90.96 106.09 92.85 C 104.96 91.00 105.23 88.89 105.44 86.86 C 104.90 82.78 101.53 80.07 99.87 76.51 C 99.05 73.96 98.83 71.28 98.35 68.66 C 97.45 68.49 96.55 68.33 95.66 68.16 C 94.25 64.21 92.59 60.33 91.79 56.19 C 91.28 55.83 90.28 55.12 89.77 54.77 C 89.49 53.84 89.46 52.88 90.14 52.09 C 91.64 49.81 92.69 47.29 93.82 44.81 C 96.01 43.05 98.72 42.09 101.25 40.92 Z" />
<path fill="#363636" d=" M 105.92 43.05 C 109.60 41.86 112.84 39.67 116.00 37.49 L 116.00 56.31 C 114.89 55.38 113.70 54.55 112.68 53.53 C 112.29 52.22 112.45 50.82 112.41 49.47 C 110.47 49.26 108.53 49.06 106.58 49.08 C 105.98 48.61 105.39 48.13 104.79 47.66 C 104.24 47.91 103.69 48.16 103.14 48.42 C 102.53 47.00 101.91 45.59 101.30 44.17 C 102.85 43.81 104.40 43.50 105.92 43.05 Z" />
<path fill="#323232" d=" M 0.00 40.62 C 4.45 39.73 8.40 42.51 12.67 43.18 C 14.25 43.64 16.36 43.32 17.28 45.01 C 16.89 46.48 15.68 47.46 14.69 48.52 C 15.29 49.13 15.89 49.73 16.49 50.34 C 16.38 53.76 16.94 57.16 18.32 60.30 C 18.13 60.78 17.94 61.26 17.74 61.74 C 18.96 63.43 20.51 64.88 22.73 64.79 C 22.94 65.31 23.36 66.35 23.57 66.87 C 24.07 64.95 24.32 62.78 25.99 61.47 C 26.02 58.20 27.98 55.41 29.01 52.41 C 29.36 52.86 30.06 53.77 30.40 54.22 C 29.96 58.80 28.09 63.05 27.38 67.57 C 26.74 67.91 26.10 68.25 25.46 68.60 C 25.81 68.93 26.52 69.60 26.87 69.93 C 26.21 70.04 24.88 70.25 24.21 70.35 C 25.02 70.65 25.83 70.96 26.64 71.26 C 26.64 72.03 26.64 72.79 26.64 73.55 C 21.99 73.25 18.83 77.26 15.21 79.49 C 14.43 78.59 13.65 77.69 12.88 76.78 C 12.55 77.12 11.90 77.79 11.57 78.12 C 10.95 75.99 10.81 73.49 9.16 71.84 C 6.16 68.77 2.94 65.92 0.00 62.79 L 0.00 40.62 Z" />
<path fill="#2e2e2e" d=" M 54.18 50.62 C 55.67 49.81 57.00 48.35 58.72 48.16 C 59.67 48.83 60.16 49.95 60.81 50.89 C 59.60 50.80 58.39 50.71 57.18 50.61 C 56.86 51.34 56.53 52.06 56.20 52.79 C 58.18 52.48 60.21 52.48 62.06 53.35 C 63.13 52.07 64.11 50.68 65.39 49.60 C 69.31 48.11 73.06 50.60 75.84 53.17 C 77.47 54.88 79.75 55.39 82.00 55.65 C 81.65 56.10 80.96 56.99 80.61 57.44 C 81.22 57.80 81.84 58.16 82.45 58.52 C 82.10 58.99 81.41 59.94 81.07 60.41 C 83.64 64.05 88.68 61.08 91.91 63.86 C 91.32 60.80 90.57 57.78 89.77 54.77 C 90.28 55.12 91.28 55.83 91.79 56.19 C 92.59 60.33 94.25 64.21 95.66 68.16 C 96.55 68.33 97.45 68.49 98.35 68.66 C 98.83 71.28 99.05 73.96 99.87 76.51 C 101.53 80.07 104.90 82.78 105.44 86.86 C 104.57 86.21 103.70 85.57 102.83 84.92 C 100.93 85.62 99.05 86.38 97.21 87.20 C 100.18 89.93 102.46 93.42 103.63 97.29 C 104.13 99.41 102.53 101.21 102.07 103.19 C 101.58 105.55 100.67 107.78 99.38 109.82 C 104.67 109.38 109.77 111.31 115.00 111.16 C 114.72 110.70 114.16 109.77 113.88 109.31 C 112.93 109.35 111.98 109.40 111.04 109.44 C 111.56 108.36 112.07 107.27 112.59 106.19 C 110.12 105.33 106.80 105.52 105.42 102.91 C 108.65 102.73 111.97 102.80 115.06 101.69 C 115.30 102.05 115.77 102.77 116.00 103.13 L 116.00 116.00 L 98.88 116.00 C 96.70 110.04 101.63 103.91 98.58 98.17 C 97.94 95.93 95.35 95.95 93.59 95.07 C 91.84 94.32 90.84 91.95 88.70 92.21 C 86.56 92.54 84.76 93.93 82.91 94.96 C 84.29 93.03 85.51 90.99 86.69 88.93 C 83.00 90.89 80.25 94.23 76.39 95.91 C 71.97 98.02 68.51 101.69 67.07 106.42 C 65.73 105.30 64.11 104.38 63.27 102.79 C 62.98 101.47 63.63 100.14 63.74 98.83 C 62.06 99.79 61.28 101.62 60.34 103.21 C 59.13 102.51 57.91 101.81 56.72 101.08 C 56.46 100.73 55.93 100.03 55.67 99.68 C 56.22 97.45 57.03 95.30 57.74 93.12 C 59.07 92.78 60.38 92.42 61.71 92.09 C 61.37 90.58 61.04 89.07 60.71 87.55 C 55.83 86.95 50.94 86.59 46.02 86.64 C 45.82 87.94 45.71 89.26 45.78 90.58 C 45.05 91.26 44.34 91.96 43.63 92.65 C 43.22 92.30 42.40 91.60 41.99 91.25 C 42.80 90.13 43.53 88.96 44.26 87.78 C 43.71 87.61 42.62 87.26 42.07 87.09 C 42.05 84.91 42.00 82.58 43.76 81.00 C 45.91 78.96 45.24 75.80 46.28 73.28 C 48.43 71.01 50.93 68.94 52.15 65.97 C 53.37 64.10 51.42 62.06 50.00 60.96 C 47.99 61.68 48.28 64.23 47.56 65.88 C 46.70 65.33 45.84 64.79 44.98 64.25 C 45.58 63.18 46.17 62.10 46.77 61.03 C 46.04 60.15 44.23 59.71 44.43 58.33 C 45.45 56.96 46.46 55.57 46.93 53.90 C 48.77 52.57 50.62 51.26 52.42 49.87 C 53.00 50.12 53.59 50.37 54.18 50.62 Z" />
<path fill="#4f4f4f" d=" M 0.00 62.79 C 2.94 65.92 6.16 68.77 9.16 71.84 C 10.81 73.49 10.95 75.99 11.57 78.12 C 11.62 81.30 11.98 84.63 10.73 87.65 C 11.16 88.41 11.60 89.17 12.03 89.93 C 11.62 90.90 11.19 91.86 10.76 92.82 C 6.17 92.58 3.23 88.51 0.00 85.74 L 0.00 77.53 C 3.55 78.90 7.10 80.31 10.56 81.89 C 10.13 79.22 10.02 76.45 9.08 73.89 C 6.51 70.41 2.93 67.85 0.00 64.71 L 0.00 62.79 Z" />
<path fill="#5f5f5f" d=" M 0.00 64.71 C 2.93 67.85 6.51 70.41 9.08 73.89 C 10.02 76.45 10.13 79.22 10.56 81.89 C 7.10 80.31 3.55 78.90 0.00 77.53 L 0.00 64.71 Z" />
<path fill="#656565" d=" M 108.51 74.29 C 110.21 71.35 113.40 69.66 116.00 67.59 L 116.00 83.51 C 114.55 84.48 113.01 85.32 111.36 85.87 C 109.59 86.30 107.81 86.68 106.03 87.07 C 107.20 82.88 107.38 78.48 108.51 74.29 Z" />
<path fill="#171717" d=" M 38.98 71.16 C 40.17 71.57 41.37 71.95 42.56 72.35 C 42.64 73.73 42.72 75.11 42.79 76.49 C 41.66 76.34 40.53 76.20 39.40 76.06 C 39.77 76.71 40.14 77.36 40.51 78.01 C 40.09 78.72 39.68 79.44 39.26 80.15 C 39.50 82.17 39.43 84.21 38.60 86.10 C 39.31 86.30 40.01 86.50 40.72 86.70 C 40.29 87.53 39.85 88.35 39.43 89.19 C 39.18 89.71 38.68 90.76 38.43 91.29 C 38.19 91.02 37.71 90.48 37.47 90.22 C 35.99 88.68 34.59 87.02 32.79 85.85 C 30.29 86.16 28.47 88.19 26.20 89.11 C 25.30 89.21 24.21 88.62 23.53 89.49 C 21.22 91.46 19.20 93.73 17.02 95.83 C 16.85 95.65 16.52 95.28 16.36 95.09 C 16.72 93.84 17.16 92.61 17.60 91.38 C 18.44 91.07 19.29 90.76 20.14 90.45 C 20.87 89.06 21.61 87.66 22.35 86.27 C 20.44 85.30 18.55 84.27 16.73 83.13 C 17.99 82.72 19.18 81.89 20.54 81.87 C 22.77 82.51 24.95 84.37 27.37 83.36 C 29.23 82.99 29.98 81.14 30.88 79.70 C 32.69 79.12 34.79 78.65 35.87 76.93 C 36.93 75.01 37.80 73.00 38.98 71.16 Z" />
<path fill="#191919" d=" M 85.42 80.15 C 87.69 77.48 91.86 79.13 93.66 81.59 C 92.13 83.13 90.50 84.55 88.84 85.94 C 86.72 84.79 85.81 82.41 85.42 80.15 Z" />
<path fill="#0e0e0e" d=" M 13.19 83.66 C 14.37 83.51 15.56 83.38 16.73 83.13 C 18.55 84.27 20.44 85.30 22.35 86.27 C 21.61 87.66 20.87 89.06 20.14 90.45 C 19.29 90.76 18.44 91.07 17.60 91.38 C 17.16 92.61 16.72 93.84 16.36 95.09 C 16.52 95.28 16.85 95.65 17.02 95.83 C 21.04 98.60 18.91 103.62 18.47 107.55 C 16.25 107.51 14.03 107.45 11.80 107.39 C 15.04 109.25 19.21 108.50 22.12 111.03 C 23.22 112.69 24.27 114.39 25.46 116.00 L 0.00 116.00 L 0.00 85.74 C 3.23 88.51 6.17 92.58 10.76 92.82 C 11.19 91.86 11.62 90.90 12.03 89.93 C 12.65 87.89 12.89 85.76 13.19 83.66 Z" />
<path fill="#171717" d=" M 111.36 85.87 C 113.01 85.32 114.55 84.48 116.00 83.51 L 116.00 93.89 C 113.00 94.91 109.89 95.53 106.85 96.44 C 108.32 96.80 109.80 97.15 111.28 97.50 C 111.40 98.27 111.52 99.04 111.63 99.81 C 113.09 100.01 114.54 100.20 116.00 100.40 L 116.00 103.13 C 115.77 102.77 115.30 102.05 115.06 101.69 C 111.97 102.80 108.65 102.73 105.42 102.91 C 106.80 105.52 110.12 105.33 112.59 106.19 C 112.07 107.27 111.56 108.36 111.04 109.44 C 111.98 109.40 112.93 109.35 113.88 109.31 C 114.16 109.77 114.72 110.70 115.00 111.16 C 109.77 111.31 104.67 109.38 99.38 109.82 C 100.67 107.78 101.58 105.55 102.07 103.19 C 102.53 101.21 104.13 99.41 103.63 97.29 C 102.46 93.42 100.18 89.93 97.21 87.20 C 99.05 86.38 100.93 85.62 102.83 84.92 C 103.70 85.57 104.57 86.21 105.44 86.86 C 105.23 88.89 104.96 91.00 106.09 92.85 C 107.77 90.96 109.49 89.11 111.32 87.37 C 111.33 87.00 111.35 86.25 111.36 85.87 Z" />
<path fill="#222222" d=" M 26.20 89.11 C 28.47 88.19 30.29 86.16 32.79 85.85 C 34.59 87.02 35.99 88.68 37.47 90.22 C 34.61 91.05 31.66 90.55 28.75 90.62 C 27.34 90.58 27.07 92.25 26.34 93.12 C 25.48 95.14 23.43 96.09 22.04 97.65 C 21.53 99.15 22.18 100.74 22.35 102.25 C 22.94 105.16 22.56 108.13 22.12 111.03 C 19.21 108.50 15.04 109.25 11.80 107.39 C 14.03 107.45 16.25 107.51 18.47 107.55 C 18.91 103.62 21.04 98.60 17.02 95.83 C 19.20 93.73 21.22 91.46 23.53 89.49 C 24.21 88.62 25.30 89.21 26.20 89.11 Z" />
<path fill="#444444" d=" M 46.02 86.64 C 50.94 86.59 55.83 86.95 60.71 87.55 C 61.04 89.07 61.37 90.58 61.71 92.09 C 60.38 92.42 59.07 92.78 57.74 93.12 L 57.15 92.52 C 56.41 91.86 55.63 91.24 54.86 90.62 C 54.52 90.65 53.84 90.70 53.50 90.73 C 50.94 90.35 48.20 88.95 45.78 90.58 C 45.71 89.26 45.82 87.94 46.02 86.64 Z" />
<path fill="#4a4a4a" d=" M 70.85 86.29 C 74.22 86.52 77.59 86.72 80.94 87.20 C 80.57 87.99 80.20 88.77 79.83 89.56 C 76.64 89.33 73.29 89.78 70.67 91.76 C 69.36 93.02 67.57 92.15 66.05 92.01 C 65.77 91.50 65.23 90.48 64.95 89.97 C 67.00 88.92 70.05 88.83 70.85 86.29 Z" />
<path fill="#070707" d=" M 39.43 89.19 C 40.29 89.87 41.15 90.55 41.99 91.25 C 42.40 91.60 43.22 92.30 43.63 92.65 C 44.34 91.96 45.05 91.26 45.78 90.58 C 48.20 88.95 50.94 90.35 53.50 90.73 C 51.70 91.37 49.94 92.10 48.18 92.83 C 49.68 94.81 51.33 96.73 53.57 97.89 C 54.80 96.12 55.99 94.33 57.15 92.52 L 57.74 93.12 C 57.03 95.30 56.22 97.45 55.67 99.68 C 55.93 100.03 56.46 100.73 56.72 101.08 C 56.54 102.69 55.27 104.34 56.01 105.93 C 58.23 107.09 60.70 106.36 62.56 104.91 C 64.09 106.54 66.21 107.24 68.29 107.88 C 65.28 109.98 62.98 112.84 61.16 116.00 L 59.61 116.00 C 59.34 111.92 56.41 108.85 53.42 106.40 C 51.44 103.22 48.73 100.63 45.25 99.16 C 43.12 96.42 40.70 93.92 38.43 91.29 C 38.68 90.76 39.18 89.71 39.43 89.19 Z" />
<path fill="#1a1a1a" d=" M 76.39 95.91 C 80.25 94.23 83.00 90.89 86.69 88.93 C 85.51 90.99 84.29 93.03 82.91 94.96 C 79.92 97.30 76.60 99.18 73.65 101.57 C 72.05 103.83 70.66 106.31 68.29 107.88 C 66.21 107.24 64.09 106.54 62.56 104.91 C 60.70 106.36 58.23 107.09 56.01 105.93 C 55.27 104.34 56.54 102.69 56.72 101.08 C 57.91 101.81 59.13 102.51 60.34 103.21 C 61.28 101.62 62.06 99.79 63.74 98.83 C 63.63 100.14 62.98 101.47 63.27 102.79 C 64.11 104.38 65.73 105.30 67.07 106.42 C 68.51 101.69 71.97 98.02 76.39 95.91 Z" />
<path fill="#393939" d=" M 26.34 93.12 C 27.07 92.25 27.34 90.58 28.75 90.62 C 31.66 90.55 34.61 91.05 37.47 90.22 C 37.71 90.48 38.19 91.02 38.43 91.29 C 40.70 93.92 43.12 96.42 45.25 99.16 C 43.13 98.19 41.13 96.80 38.82 96.35 C 34.08 96.16 29.36 97.73 25.48 100.42 C 26.95 101.75 28.42 103.13 29.41 104.87 L 29.22 105.56 C 25.47 104.45 23.12 109.37 24.66 112.27 C 26.67 113.98 29.24 114.85 31.59 116.00 L 25.46 116.00 C 24.27 114.39 23.22 112.69 22.12 111.03 C 22.56 108.13 22.94 105.16 22.35 102.25 C 22.18 100.74 21.53 99.15 22.04 97.65 C 23.43 96.09 25.48 95.14 26.34 93.12 Z" />
<path fill="#343434" d=" M 53.50 90.73 C 53.84 90.70 54.52 90.65 54.86 90.62 C 55.63 91.24 56.41 91.86 57.15 92.52 C 55.99 94.33 54.80 96.12 53.57 97.89 C 51.33 96.73 49.68 94.81 48.18 92.83 C 49.94 92.10 51.70 91.37 53.50 90.73 Z" />
<path fill="#4e4e4e" d=" M 82.91 94.96 C 84.76 93.93 86.56 92.54 88.70 92.21 C 90.84 91.95 91.84 94.32 93.59 95.07 C 95.35 95.95 97.94 95.93 98.58 98.17 C 101.63 103.91 96.70 110.04 98.88 116.00 L 95.92 116.00 C 94.60 110.32 95.87 104.53 95.46 98.80 C 92.04 98.23 88.99 96.38 85.67 95.58 C 80.38 97.82 75.49 101.46 72.07 106.13 C 70.77 107.76 69.07 108.97 67.44 110.24 C 68.09 112.18 68.76 114.11 69.55 116.00 L 61.16 116.00 C 62.98 112.84 65.28 109.98 68.29 107.88 C 70.66 106.31 72.05 103.83 73.65 101.57 C 76.60 99.18 79.92 97.30 82.91 94.96 Z" />
<path fill="#434343" d=" M 65.33 93.87 C 67.91 93.61 70.19 94.80 72.09 96.44 C 70.51 98.60 68.10 99.85 65.88 101.23 C 65.34 100.36 64.80 99.50 64.26 98.64 C 63.61 98.43 62.33 98.01 61.68 97.81 C 62.61 96.63 63.99 96.03 65.31 95.41 C 65.32 95.03 65.32 94.26 65.33 93.87 Z" />
<path fill="#323232" d=" M 106.85 96.44 C 109.89 95.53 113.00 94.91 116.00 93.89 L 116.00 100.40 C 114.54 100.20 113.09 100.01 111.63 99.81 C 111.52 99.04 111.40 98.27 111.28 97.50 C 109.80 97.15 108.32 96.80 106.85 96.44 Z" />
<path fill="#656565" d=" M 85.67 95.58 C 88.99 96.38 92.04 98.23 95.46 98.80 C 95.87 104.53 94.60 110.32 95.92 116.00 L 69.55 116.00 C 68.76 114.11 68.09 112.18 67.44 110.24 C 69.07 108.97 70.77 107.76 72.07 106.13 C 75.49 101.46 80.38 97.82 85.67 95.58 Z" />
<path fill="#606060" d=" M 25.48 100.42 C 29.36 97.73 34.08 96.16 38.82 96.35 C 41.13 96.80 43.13 98.19 45.25 99.16 C 48.73 100.63 51.44 103.22 53.42 106.40 C 53.84 107.56 54.22 108.74 54.63 109.90 C 53.60 110.76 52.84 112.28 51.36 112.34 C 46.70 112.79 42.03 112.04 37.42 111.40 C 34.16 111.02 31.77 107.99 28.33 108.38 C 28.63 107.44 28.93 106.50 29.22 105.56 L 29.41 104.87 C 28.42 103.13 26.95 101.75 25.48 100.42 Z" />
<path fill="#4f4f4f" d=" M 24.66 112.27 C 23.12 109.37 25.47 104.45 29.22 105.56 C 28.93 106.50 28.63 107.44 28.33 108.38 C 31.77 107.99 34.16 111.02 37.42 111.40 C 42.03 112.04 46.70 112.79 51.36 112.34 C 52.84 112.28 53.60 110.76 54.63 109.90 C 54.22 108.74 53.84 107.56 53.42 106.40 C 56.41 108.85 59.34 111.92 59.61 116.00 L 31.59 116.00 C 29.24 114.85 26.67 113.98 24.66 112.27 Z" />
</svg>
